<?xml version="1.0" encoding="UTF-8" standalone="no"?>
<!-- Created with Inkscape (http://www.inkscape.org/) -->

<svg
   width="66.761536mm"
   height="66.761528mm"
   viewBox="0 0 66.761536 66.761528"
   version="1.1"
   id="svg1"
   xmlns="http://www.w3.org/2000/svg"
   xmlns:svg="http://www.w3.org/2000/svg">
  <defs
     id="defs1" />
  <g
     id="layer5"
     transform="translate(-79.633985,-227.02962)">
    <path
       style="display:inline;fill:#11111b;fill-opacity:1;stroke-width:0.284027"
       id="rect10-3-5-5-5"
       width="110.00001"
       height="109.99999"
       x="65"
       y="90"
       d="m 80.000002,90 h 80.403268 a 14.596733,14.596733 45 0 1 14.59674,14.59673 v 80.40326 a 15.000004,15.000004 135 0 1 -15.00001,15 H 79.999998 A 14.999998,14.999998 45 0 1 65,184.99999 V 105 A 15.000002,15.000002 135 0 1 80.000002,90 Z"
       transform="matrix(0.60692305,0,0,0.60692305,40.183988,172.40655)" />
    <path
       d="m 126.71423,256.35076 v 7.9251 h 2.40192 c 0.63641,0 1.14877,-0.51236 1.14877,-1.14877 v -5.62756 c 0,-0.63641 -0.51236,-1.14877 -1.14877,-1.14877 z"
       style="fill:#fade87;stroke-width:0.0633754"
       id="path70" />
    <path
       d="m 126.71423,243.39858 v 7.9251 h 2.40192 c 0.63641,0 1.14877,-0.51236 1.14877,-1.14877 v -5.62756 c 0,-0.63641 -0.51236,-1.14877 -1.14877,-1.14877 z"
       style="fill:#fade87;stroke-width:0.0633754"
       id="path68" />
    <path
       d="m 99.315385,251.32368 v -7.9251 h -2.094963 c -0.636407,0 -1.148767,0.51236 -1.148767,1.14877 v 5.62756 c 0,0.63641 0.51236,1.14877 1.148767,1.14877 z"
       style="fill:#fade87;stroke-width:0.0633754"
       id="path66" />
    <path
       d="m 99.315385,264.27586 v -7.9251 h -2.094963 c -0.636407,0 -1.148767,0.51236 -1.148767,1.14877 v 5.62756 c 0,0.63641 0.51236,1.14877 1.148767,1.14877 z"
       style="fill:#fade87;stroke-width:0.0633754"
       id="path63" />
    <path
       d="m 99.315385,277.22804 v -7.9251 h -2.094963 c -0.636407,0 -1.148767,0.51236 -1.148767,1.14877 v 5.62756 c 0,0.63641 0.51236,1.14877 1.148767,1.14877 z"
       style="fill:#fade87;stroke-width:0.0633754"
       id="path62" />
    <path
       d="m 126.71423,269.30294 v 7.9251 h 2.40192 c 0.63641,0 1.14877,-0.51236 1.14877,-1.14877 v -5.62756 c 0,-0.63641 -0.51236,-1.14877 -1.14877,-1.14877 z"
       style="fill:#fade87;stroke-width:0.0633754"
       id="path59" />
    <path
       d="m 104.18124,237.90434 c -2.69576,0 -4.865855,2.1701 -4.865855,4.86585 v 0.62839 7.9251 5.02708 7.9251 5.02708 7.9251 0.82217 c 0,2.69576 2.170095,4.86637 4.865855,4.86637 h 17.66662 c 2.69576,0 4.86637,-2.17061 4.86637,-4.86637 v -0.82217 -7.9251 -5.02708 -7.9251 -5.02708 -7.9251 -0.62839 c 0,-2.69575 -2.17061,-4.86585 -4.86637,-4.86585 z m 15.38872,34.70899 a 3.4679778,3.4679778 0 0 1 3.46801,3.46801 3.4679778,3.4679778 0 0 1 -3.46801,3.468 3.4679778,3.4679778 0 0 1 -3.468,-3.468 3.4679778,3.4679778 0 0 1 3.468,-3.46801 z"
       style="fill:#4e4e7c;stroke-width:0.264583"
       id="path74" />
    <path
       style="fill:#c8cc1d;fill-opacity:1;stroke-width:16.565;stroke-dasharray:none;paint-order:markers stroke fill"
       d="m 126.71403,260.41039 -18.00987,14.65176"
       id="path8" />
    <g
       id="g15"
       style="display:none">
      <path
         style="fill:#fade87;fill-opacity:1;stroke-width:18.1625;stroke-dasharray:none;paint-order:markers stroke fill"
         d="m 126.80011,261.21987 -12.53842,11.51068 a 4.7662953,4.7662953 158.77282 0 1 -3.23151,1.25518 l -11.71469,-0.0202 a 0.25867514,0.25867514 45.049287 0 1 -0.25823,-0.25867 v -0.95276 l 11.29473,0.17457 a 4.7366617,4.7366617 159.43841 0 0 3.24318,-1.21655 l 13.27379,-11.95541"
         id="path11"
         transform="translate(-0.34032136,-0.29956185)" />
      <rect
         style="fill:#fade87;fill-opacity:1;stroke-width:38.9972;stroke-dasharray:none;paint-order:markers stroke fill"
         id="rect13"
         width="10.175883"
         height="1.9657977"
         x="98.474762"
         y="259.06876"
         ry="0.98289883" />
      <rect
         style="fill:#fade87;fill-opacity:1;stroke-width:49.4558;stroke-dasharray:none;paint-order:markers stroke fill"
         id="rect13-6"
         width="30.396101"
         height="1.0584257"
         x="98.649689"
         y="246.68279"
         ry="0.52921283" />
      <path
         d="m 111.01123,256.65323 a 3.3662118,3.3662118 0 0 0 -3.36669,3.36672 3.3662118,3.3662118 0 0 0 3.36669,3.36514 3.3662118,3.3662118 0 0 0 3.36517,-3.36514 3.3662118,3.3662118 0 0 0 -3.36517,-3.36672 z m 0,1.79035 a 1.5764754,1.5764754 0 0 1 1.57637,1.57637 1.5764754,1.5764754 0 0 1 -1.57637,1.57634 1.5764754,1.5764754 0 0 1 -1.57634,-1.57634 1.5764754,1.5764754 0 0 1 1.57634,-1.57637 z"
         style="fill:#fade87;stroke-width:53.5168;paint-order:markers stroke fill"
         id="path15" />
    </g>
  </g>
</svg>
