<?xml version="1.0" encoding="UTF-8"?>
<svg xmlns="http://www.w3.org/2000/svg" xmlns:xlink="http://www.w3.org/1999/xlink" width="32px" height="32px" viewBox="0 0 32 31" version="1.1">
<g id="surface1">
<path style=" stroke:none;fill-rule:nonzero;fill:rgb(6.666667%,6.666667%,10.588235%);fill-opacity:1;" d="M 4.355469 0 L 27.703125 0 C 30.042969 0 31.941406 1.839844 31.941406 4.105469 L 31.941406 26.722656 C 31.941406 29.054688 29.988281 30.941406 27.585938 30.941406 L 4.355469 30.941406 C 1.949219 30.941406 0 29.054688 0 26.722656 L 0 4.21875 C 0 1.890625 1.949219 0 4.355469 0 Z M 4.355469 0 "/>
<path style=" stroke:none;fill-rule:nonzero;fill:rgb(98.039216%,87.058824%,52.941179%);fill-opacity:1;" d="M 22.523438 13.589844 L 22.523438 17.261719 L 23.671875 17.261719 C 23.976562 17.261719 24.222656 17.023438 24.222656 16.730469 L 24.222656 14.121094 C 24.222656 13.828125 23.976562 13.589844 23.671875 13.589844 Z M 22.523438 13.589844 "/>
<path style=" stroke:none;fill-rule:nonzero;fill:rgb(98.039216%,87.058824%,52.941179%);fill-opacity:1;" d="M 22.523438 7.585938 L 22.523438 11.257812 L 23.671875 11.257812 C 23.976562 11.257812 24.222656 11.023438 24.222656 10.726562 L 24.222656 8.117188 C 24.222656 7.824219 23.976562 7.585938 23.671875 7.585938 Z M 22.523438 7.585938 "/>
<path style=" stroke:none;fill-rule:nonzero;fill:rgb(98.039216%,87.058824%,52.941179%);fill-opacity:1;" d="M 9.414062 11.257812 L 9.414062 7.585938 L 8.414062 7.585938 C 8.109375 7.585938 7.863281 7.824219 7.863281 8.117188 L 7.863281 10.726562 C 7.863281 11.023438 8.109375 11.257812 8.414062 11.257812 Z M 9.414062 11.257812 "/>
<path style=" stroke:none;fill-rule:nonzero;fill:rgb(98.039216%,87.058824%,52.941179%);fill-opacity:1;" d="M 9.414062 17.261719 L 9.414062 13.589844 L 8.414062 13.589844 C 8.109375 13.589844 7.863281 13.828125 7.863281 14.121094 L 7.863281 16.730469 C 7.863281 17.023438 8.109375 17.261719 8.414062 17.261719 Z M 9.414062 17.261719 "/>
<path style=" stroke:none;fill-rule:nonzero;fill:rgb(98.039216%,87.058824%,52.941179%);fill-opacity:1;" d="M 9.414062 23.265625 L 9.414062 19.59375 L 8.414062 19.59375 C 8.109375 19.59375 7.863281 19.828125 7.863281 20.125 L 7.863281 22.734375 C 7.863281 23.027344 8.109375 23.265625 8.414062 23.265625 Z M 9.414062 23.265625 "/>
<path style=" stroke:none;fill-rule:nonzero;fill:rgb(98.039216%,87.058824%,52.941179%);fill-opacity:1;" d="M 22.523438 19.59375 L 22.523438 23.265625 L 23.671875 23.265625 C 23.976562 23.265625 24.222656 23.027344 24.222656 22.734375 L 24.222656 20.125 C 24.222656 19.828125 23.976562 19.59375 23.671875 19.59375 Z M 22.523438 19.59375 "/>
<path style=" stroke:none;fill-rule:nonzero;fill:rgb(30.588236%,30.588236%,48.627451%);fill-opacity:1;" d="M 11.742188 5.039062 C 10.453125 5.039062 9.414062 6.046875 9.414062 7.296875 L 9.414062 23.648438 C 9.414062 24.894531 10.453125 25.902344 11.742188 25.902344 L 20.195312 25.902344 C 21.484375 25.902344 22.523438 24.894531 22.523438 23.648438 L 22.523438 7.296875 C 22.523438 6.046875 21.484375 5.039062 20.195312 5.039062 Z M 19.019531 21.117188 C 19.773438 21.117188 20.429688 21.621094 20.605469 22.335938 C 20.632812 22.453125 20.648438 22.574219 20.648438 22.699219 C 20.648438 23.570312 19.917969 24.277344 19.019531 24.277344 C 18.117188 24.277344 17.390625 23.570312 17.390625 22.699219 C 17.390625 21.824219 18.117188 21.117188 19.019531 21.117188 Z M 19.019531 21.117188 "/>
<path style=" stroke:none;fill-rule:nonzero;fill:rgb(78.431374%,80.000001%,11.372549%);fill-opacity:1;" d="M 22.523438 15.472656 L 13.90625 22.261719 "/>
</g>
</svg>
