<?xml version="1.0" encoding="UTF-8"?>
<svg xmlns="http://www.w3.org/2000/svg" xmlns:xlink="http://www.w3.org/1999/xlink" width="32px" height="32px" viewBox="0 0 32 31" version="1.1">
<g id="surface1">
<path style=" stroke:none;fill-rule:nonzero;fill:rgb(6.666667%,6.666667%,10.588235%);fill-opacity:1;" d="M 4.355469 0 L 27.703125 0 C 30.042969 0 31.941406 1.839844 31.941406 4.105469 L 31.941406 26.722656 C 31.941406 29.054688 29.988281 30.941406 27.585938 30.941406 L 4.355469 30.941406 C 1.949219 30.941406 0 29.054688 0 26.722656 L 0 4.21875 C 0 1.890625 1.949219 0 4.355469 0 Z M 4.355469 0 "/>
<path style=" stroke:none;fill-rule:nonzero;fill:rgb(98.039216%,87.058824%,52.941179%);fill-opacity:1;" d="M 23.878906 13.589844 L 23.878906 17.261719 L 25.265625 17.261719 C 25.636719 17.261719 25.929688 17.023438 25.929688 16.730469 L 25.929688 14.121094 C 25.929688 13.828125 25.636719 13.589844 25.265625 13.589844 Z M 23.878906 13.589844 "/>
<path style=" stroke:none;fill-rule:nonzero;fill:rgb(98.039216%,87.058824%,52.941179%);fill-opacity:1;" d="M 23.878906 7.585938 L 23.878906 11.257812 L 25.265625 11.257812 C 25.636719 11.257812 25.929688 11.023438 25.929688 10.726562 L 25.929688 8.117188 C 25.929688 7.824219 25.636719 7.585938 25.265625 7.585938 Z M 23.878906 7.585938 "/>
<path style=" stroke:none;fill-rule:nonzero;fill:rgb(98.039216%,87.058824%,52.941179%);fill-opacity:1;" d="M 8.03125 11.257812 L 8.03125 7.585938 L 6.820312 7.585938 C 6.453125 7.585938 6.15625 7.824219 6.15625 8.117188 L 6.15625 10.726562 C 6.15625 11.023438 6.453125 11.257812 6.820312 11.257812 Z M 8.03125 11.257812 "/>
<path style=" stroke:none;fill-rule:nonzero;fill:rgb(98.039216%,87.058824%,52.941179%);fill-opacity:1;" d="M 8.03125 17.261719 L 8.03125 13.589844 L 6.820312 13.589844 C 6.453125 13.589844 6.15625 13.828125 6.15625 14.121094 L 6.15625 16.730469 C 6.15625 17.023438 6.453125 17.261719 6.820312 17.261719 Z M 8.03125 17.261719 "/>
<path style=" stroke:none;fill-rule:nonzero;fill:rgb(98.039216%,87.058824%,52.941179%);fill-opacity:1;" d="M 8.03125 23.265625 L 8.03125 19.59375 L 6.820312 19.59375 C 6.453125 19.59375 6.15625 19.828125 6.15625 20.125 L 6.15625 22.734375 C 6.15625 23.027344 6.453125 23.265625 6.820312 23.265625 Z M 8.03125 23.265625 "/>
<path style=" stroke:none;fill-rule:nonzero;fill:rgb(98.039216%,87.058824%,52.941179%);fill-opacity:1;" d="M 23.878906 19.59375 L 23.878906 23.265625 L 25.265625 23.265625 C 25.636719 23.265625 25.929688 23.027344 25.929688 22.734375 L 25.929688 20.125 C 25.929688 19.828125 25.636719 19.59375 25.265625 19.59375 Z M 23.878906 19.59375 "/>
<path style=" stroke:none;fill-rule:nonzero;fill:rgb(30.588236%,30.588236%,48.627451%);fill-opacity:1;" d="M 10.847656 5.039062 C 9.285156 5.039062 8.03125 6.046875 8.03125 7.296875 L 8.03125 23.648438 C 8.03125 24.894531 9.285156 25.902344 10.847656 25.902344 L 21.0625 25.902344 C 22.621094 25.902344 23.878906 24.894531 23.878906 23.648438 L 23.878906 7.296875 C 23.878906 6.046875 22.621094 5.039062 21.0625 5.039062 Z M 19.25 20.011719 C 20.347656 20.011719 21.238281 20.875 21.238281 21.9375 C 21.238281 23 20.347656 23.863281 19.25 23.863281 C 18.683594 23.855469 18.148438 23.613281 17.777344 23.203125 C 17.453125 22.855469 17.269531 22.40625 17.261719 21.9375 C 17.261719 20.875 18.152344 20.011719 19.25 20.011719 Z M 19.25 20.011719 "/>
</g>
</svg>
