<?xml version="1.0" encoding="UTF-8" standalone="no"?>
<!-- Created with Inkscape (http://www.inkscape.org/) -->

<svg
   width="66.761536mm"
   height="66.761528mm"
   viewBox="0 0 66.761536 66.761528"
   version="1.1"
   id="svg1"
   xmlns="http://www.w3.org/2000/svg"
   xmlns:svg="http://www.w3.org/2000/svg">
  <defs
     id="defs1" />
  <g
     id="layer2"
     transform="translate(-7.4663651,-81.738474)">
    <path
       style="display:inline;fill:#11111b;fill-opacity:1;stroke-width:0.284027"
       id="rect10-3"
       width="110.00001"
       height="109.99999"
       x="65"
       y="90"
       d="m 80.000002,90 h 80.403268 a 14.596733,14.596733 45 0 1 14.59674,14.59673 v 80.40326 a 15.000004,15.000004 135 0 1 -15.00001,15 H 79.999998 A 14.999998,14.999998 45 0 1 65,184.99999 V 105 A 15.000002,15.000002 135 0 1 80.000002,90 Z"
       transform="matrix(0.60692305,0,0,0.60692305,-31.983633,27.115395)" />
    <g
       id="g12"
       transform="translate(33.945724,41.863638)">
      <path
         d="M 124.85406,22.08975 C 113.88261,31.524973 109.72879,45.261203 110,54.999744 c -2e-4,24.852889 20.14695,45.000266 44.99984,45.000356 V 84.99998 c -16.56853,-1.57e-4 -29.99985,-13.431712 -29.99972,-30.000236 0.008,-10.381393 4.04768,-17.261643 10.06819,-21.817467 2.24775,-1.700909 3.80843,-4.953259 3.2226,-7.713698 -1.20831,-5.693559 -7.82792,-8.202398 -13.43685,-3.378829 z m 60.29156,0 c 10.97145,9.435223 15.12527,23.171453 14.85406,32.909994 2e-4,24.852889 -20.14695,45.000266 -44.99984,45.000356 V 84.99998 c 16.56853,-1.57e-4 29.99985,-13.431712 29.99972,-30.000236 -0.008,-10.381393 -4.04768,-17.261643 -10.06819,-21.817467 -2.24775,-1.700909 -3.80843,-4.953259 -3.2226,-7.713698 1.20831,-5.693559 7.82792,-8.202398 13.43685,-3.378829 z"
         style="display:inline;fill:#a6e3a1;fill-opacity:1;stroke-width:0.264583"
         id="path6-6"
         transform="matrix(0,0.5,-0.5,0,32.420046,-4.2443237)" />
      <path
         d="m 132.52,16.126275 c -13.61514,7.85099 -22.47823,22.504712 -22.52,38.873469 -2e-4,24.852889 20.14695,45.000266 44.99984,45.000356 V 84.99998 c -16.56853,-1.57e-4 -29.99985,-13.431712 -29.99972,-30.000236 0.009,-10.979594 5.99377,-20.925507 15.35027,-26.157475 2.46005,-1.375612 3.18897,-3.934491 2.19928,-6.567448 -2.19663,-5.843965 -3.61712,-9.846255 -10.02967,-6.148546 z m 44.95968,0 c 13.61514,7.85099 22.47823,22.504712 22.52,38.873469 2e-4,24.852889 -20.14695,45.000266 -44.99984,45.000356 V 84.99998 c 16.56853,-1.57e-4 29.99985,-13.431712 29.99972,-30.000236 -0.009,-10.979594 -5.99377,-20.925507 -15.35027,-26.157475 -2.46005,-1.375612 -3.18897,-3.934491 -2.19928,-6.567448 2.19663,-5.843965 3.61712,-9.846255 10.02967,-6.148546 z"
         style="display:none;fill:#f38ba8;fill-opacity:1;stroke-width:0.264583"
         id="path6-7"
         transform="rotate(90,48.86409,72.610719)" />
      <path
         id="rect8-7"
         d="m 154.14137,7.4923429 h 1.71725 a 6.1788546,6.1788546 45 0 1 6.17885,6.1788551 v 17.746047 a 6.0750999,6.0750999 135 0 1 -6.0751,6.0751 h -1.92475 a 6.0750999,6.0750999 45 0 1 -6.0751,-6.0751 V 13.671198 a 6.1788546,6.1788546 135 0 1 6.17885,-6.1788551 z"
         style="color:#000000;font-style:normal;font-variant:normal;font-weight:normal;font-stretch:normal;font-size:medium;line-height:normal;font-family:sans-serif;font-variant-ligatures:normal;font-variant-position:normal;font-variant-caps:normal;font-variant-numeric:normal;font-variant-alternates:normal;font-variant-east-asian:normal;font-feature-settings:normal;font-variation-settings:normal;text-indent:0;text-align:start;text-decoration-line:none;text-decoration-style:solid;text-decoration-color:#000000;letter-spacing:normal;word-spacing:normal;text-transform:none;writing-mode:lr-tb;direction:ltr;text-orientation:mixed;dominant-baseline:auto;baseline-shift:baseline;text-anchor:start;white-space:normal;shape-padding:0;shape-margin:0;inline-size:0;clip-rule:nonzero;display:inline;overflow:visible;visibility:visible;isolation:auto;mix-blend-mode:normal;color-interpolation:sRGB;color-interpolation-filters:linearRGB;solid-color:#000000;solid-opacity:1;vector-effect:none;fill:#a6e3a1;fill-opacity:1;fill-rule:nonzero;stroke:none;stroke-linecap:butt;stroke-linejoin:miter;stroke-miterlimit:4;stroke-dasharray:none;stroke-dashoffset:0;stroke-opacity:1;-inkscape-stroke:none;color-rendering:auto;image-rendering:auto;shape-rendering:auto;text-rendering:auto;enable-background:accumulate;stop-color:#000000"
         transform="matrix(0,0.5,-0.574875,0,32.767314,-4.2444007)" />
      <path
         style="fill:#a6e3a1;fill-opacity:1;stroke-width:0.264583"
         id="rect11-2"
         width="10"
         height="22.539177"
         x="-112.38344"
         y="-190.01622"
         ry="5"
         transform="matrix(-0.5,0,0,-0.5714896,-29.876213,-28.896242)"
         d="m -107.38344,-190.01622 c 2.77,0 5,2.23 5,5 v 12.53918 c 0,2.77 -2.23,5 -5,5 -2.77,0 -5,-2.23 -5,-5 v -12.53918 c 0,-2.77 2.23,-5 5,-5 z m -15.30459,13.70307 c -1.385,-2.39889 -0.56877,-5.44513 1.83012,-6.83013 l 10.85925,-6.26959 c 2.39889,-1.385 5.44513,-0.56876 6.83013,1.83013 1.385,2.39889 0.56876,5.44513 -1.83013,6.83013 l -10.85925,6.26959 c -2.39889,1.385 -5.44512,0.56876 -6.83012,-1.83013 z m 19.5195,6.40263 c -1.385,2.39889 -4.43124,3.21513 -6.83013,1.83013 l -10.85924,-6.26959 c -2.39889,-1.385 -3.21513,-4.43124 -1.83013,-6.83013 1.385,-2.39889 4.43124,-3.21512 6.83013,-1.83012 l 10.85924,6.26958 c 2.39889,1.385 3.21513,4.43124 1.83013,6.83013 z" />
    </g>
  </g>
</svg>
