<?xml version="1.0" encoding="UTF-8"?>
<svg xmlns="http://www.w3.org/2000/svg" xmlns:xlink="http://www.w3.org/1999/xlink" width="32px" height="32px" viewBox="0 0 32 31" version="1.1">
<g id="surface1">
<path style=" stroke:none;fill-rule:nonzero;fill:rgb(6.666667%,6.666667%,10.588235%);fill-opacity:1;" d="M 4.355469 0 L 27.703125 0 C 30.042969 0 31.941406 1.839844 31.941406 4.105469 L 31.941406 26.722656 C 31.941406 29.054688 29.988281 30.941406 27.585938 30.941406 L 4.355469 30.941406 C 1.949219 30.941406 0 29.054688 0 26.722656 L 0 4.21875 C 0 1.890625 1.949219 0 4.355469 0 Z M 4.355469 0 "/>
<path style=" stroke:none;fill-rule:nonzero;fill:rgb(98.039216%,70.19608%,52.941179%);fill-opacity:1;" d="M 16.082031 22.578125 C 11.964844 22.578125 8.625 19.398438 8.625 15.472656 L 5.070312 15.472656 C 5.070312 21.230469 10 25.902344 16.082031 25.902344 Z M 16.082031 22.578125 "/>
<path style=" stroke:none;fill-rule:nonzero;fill:rgb(98.039216%,70.19608%,52.941179%);fill-opacity:1;" d="M 17.796875 24.242188 C 17.796875 23.324219 17.03125 22.578125 16.082031 22.578125 C 15.136719 22.578125 14.371094 23.324219 14.371094 24.242188 C 14.371094 25.160156 15.136719 25.902344 16.082031 25.902344 C 17.03125 25.902344 17.796875 25.160156 17.796875 24.242188 Z M 17.796875 24.242188 "/>
<path style=" stroke:none;fill-rule:nonzero;fill:rgb(98.039216%,70.19608%,52.941179%);fill-opacity:1;" d="M 10.835938 15.195312 C 10.835938 16.050781 10.046875 16.738281 9.066406 16.738281 L 4.628906 16.738281 C 3.652344 16.738281 2.863281 16.050781 2.863281 15.195312 C 2.863281 14.339844 3.652344 13.648438 4.628906 13.648438 L 9.066406 13.648438 C 10.046875 13.648438 10.835938 14.339844 10.835938 15.195312 Z M 5.988281 10.464844 C 6.835938 10.035156 7.914062 10.289062 8.402344 11.03125 L 10.621094 14.386719 C 11.113281 15.128906 10.824219 16.070312 9.972656 16.496094 C 9.125 16.925781 8.046875 16.671875 7.558594 15.933594 L 5.339844 12.574219 C 4.851562 11.832031 5.140625 10.890625 5.988281 10.464844 Z M 3.722656 16.496094 C 2.875 16.070312 2.585938 15.128906 3.074219 14.386719 L 5.292969 11.03125 C 5.78125 10.289062 6.859375 10.035156 7.710938 10.464844 C 8.558594 10.890625 8.847656 11.832031 8.355469 12.574219 L 6.140625 15.933594 C 5.648438 16.671875 4.570312 16.925781 3.722656 16.496094 Z M 3.722656 16.496094 "/>
<path style=" stroke:none;fill-rule:nonzero;fill:rgb(98.039216%,70.19608%,52.941179%);fill-opacity:1;" d="M 16.082031 8.363281 C 20.203125 8.363281 23.542969 11.542969 23.542969 15.472656 L 27.097656 15.472656 C 27.097656 9.710938 22.167969 5.039062 16.082031 5.039062 Z M 16.082031 8.363281 "/>
<path style=" stroke:none;fill-rule:nonzero;fill:rgb(98.039216%,70.19608%,52.941179%);fill-opacity:1;" d="M 14.371094 6.699219 C 14.371094 7.617188 15.136719 8.363281 16.082031 8.363281 C 17.03125 8.363281 17.796875 7.617188 17.796875 6.699219 C 17.796875 5.785156 17.03125 5.039062 16.082031 5.039062 C 15.136719 5.039062 14.371094 5.785156 14.371094 6.699219 Z M 14.371094 6.699219 "/>
<path style=" stroke:none;fill-rule:nonzero;fill:rgb(98.039216%,70.19608%,52.941179%);fill-opacity:1;" d="M 21.332031 15.746094 C 21.332031 14.890625 22.121094 14.203125 23.101562 14.203125 L 27.539062 14.203125 C 28.515625 14.203125 29.304688 14.890625 29.304688 15.746094 C 29.304688 16.605469 28.515625 17.292969 27.539062 17.292969 L 23.101562 17.292969 C 22.121094 17.292969 21.332031 16.605469 21.332031 15.746094 Z M 26.179688 20.476562 C 25.332031 20.90625 24.253906 20.652344 23.765625 19.914062 L 21.546875 16.554688 C 21.054688 15.8125 21.34375 14.871094 22.195312 14.445312 C 23.042969 14.015625 24.121094 14.269531 24.609375 15.011719 L 26.828125 18.367188 C 27.316406 19.109375 27.027344 20.050781 26.179688 20.476562 Z M 28.445312 14.445312 C 29.292969 14.871094 29.582031 15.8125 29.09375 16.554688 L 26.875 19.914062 C 26.386719 20.652344 25.308594 20.90625 24.457031 20.476562 C 23.609375 20.050781 23.320312 19.109375 23.8125 18.367188 L 26.027344 15.011719 C 26.519531 14.269531 27.597656 14.015625 28.445312 14.445312 Z M 28.445312 14.445312 "/>
</g>
</svg>
