<?xml version="1.0" encoding="UTF-8"?>
<svg xmlns="http://www.w3.org/2000/svg" xmlns:xlink="http://www.w3.org/1999/xlink" width="32px" height="32px" viewBox="0 0 32 31" version="1.1">
<g id="surface1">
<path style=" stroke:none;fill-rule:nonzero;fill:rgb(6.666667%,6.666667%,10.588235%);fill-opacity:1;" d="M 4.355469 0 L 27.703125 0 C 30.042969 0 31.941406 1.839844 31.941406 4.105469 L 31.941406 26.722656 C 31.941406 29.054688 29.988281 30.941406 27.585938 30.941406 L 4.355469 30.941406 C 1.949219 30.941406 0 29.054688 0 26.722656 L 0 4.21875 C 0 1.890625 1.949219 0 4.355469 0 Z M 4.355469 0 "/>
<path style=" stroke:none;fill-rule:nonzero;fill:rgb(53.725493%,86.274511%,92.156863%);fill-opacity:1;" d="M 25.375 20.894531 C 23.910156 21.761719 22.21875 22.222656 20.492188 22.222656 C 15.40625 22.222656 11.285156 18.320312 11.285156 13.503906 C 11.289062 9.683594 13.917969 6.3125 17.773438 5.183594 C 17.175781 5.089844 16.574219 5.039062 15.96875 5.039062 C 9.886719 5.039062 4.957031 9.710938 4.957031 15.472656 C 4.957031 21.230469 9.886719 25.902344 15.96875 25.902344 C 19.8125 25.902344 23.375 24.003906 25.375 20.894531 Z M 25.375 20.894531 "/>
</g>
</svg>
