<?xml version="1.0" encoding="UTF-8" standalone="no"?>
<!-- Created with Inkscape (http://www.inkscape.org/) -->

<svg
   width="66.761536mm"
   height="66.761528mm"
   viewBox="0 0 66.761536 66.761528"
   version="1.1"
   id="svg1"
   xmlns:xlink="http://www.w3.org/1999/xlink"
   xmlns="http://www.w3.org/2000/svg"
   xmlns:svg="http://www.w3.org/2000/svg">
  <defs
     id="defs1" />
  <g
     id="layer3"
     transform="translate(-7.4663661,-154.38407)">
    <path
       style="display:inline;fill:#11111b;fill-opacity:1;stroke-width:0.284027"
       id="rect10-3-5"
       width="110.00001"
       height="109.99999"
       x="65"
       y="90"
       d="m 80.000002,90 h 80.403268 a 14.596733,14.596733 45 0 1 14.59674,14.59673 v 80.40326 a 15.000004,15.000004 135 0 1 -15.00001,15 H 79.999998 A 14.999998,14.999998 45 0 1 65,184.99999 V 105 A 15.000002,15.000002 135 0 1 80.000002,90 Z"
       transform="matrix(0.60692305,0,0,0.60692305,-31.983632,99.760974)" />
    <g
       id="g19"
       style="fill:#fab387;fill-opacity:1">
      <path
         d="M 41.085189,203.10337 A 15.587652,15.33853 0 0 1 25.49751,187.76477 h -7.432621 a 23.020079,22.506119 0 0 0 23.0203,22.50612 z"
         style="fill:#fab387;fill-opacity:1;stroke-width:0.264583"
         id="path3" />
      <circle
         style="fill:#fab387;fill-opacity:1;stroke-width:0.264583"
         id="path4"
         cx="41.08519"
         cy="206.68689"
         r="3.5840001" />
      <path
         style="fill:#fab387;fill-opacity:1;stroke-width:0.264583"
         id="rect11-2-7"
         width="10"
         height="22.539177"
         x="-112.38344"
         y="-190.01622"
         ry="5"
         transform="matrix(0,0.66693074,-0.73943335,0,-110.39002,258.7858)"
         d="m -107.38344,-190.01622 c 2.77,0 5,2.23 5,5 v 12.53918 c 0,2.77 -2.23,5 -5,5 -2.77,0 -5,-2.23 -5,-5 v -12.53918 c 0,-2.77 2.23,-5 5,-5 z m -15.30459,13.70307 c -1.385,-2.39889 -0.56877,-5.44513 1.83012,-6.83013 l 10.85925,-6.26959 c 2.39889,-1.385 5.44513,-0.56876 6.83013,1.83013 1.385,2.39889 0.56876,5.44513 -1.83013,6.83013 l -10.85925,6.26959 c -2.39889,1.385 -5.44512,0.56876 -6.83012,-1.83013 z m 19.5195,6.40263 c -1.385,2.39889 -4.43124,3.21513 -6.83013,1.83013 l -10.85924,-6.26959 c -2.39889,-1.385 -3.21513,-4.43124 -1.83013,-6.83013 1.385,-2.39889 4.43124,-3.21512 6.83013,-1.83012 l 10.85924,6.26958 c 2.39889,1.385 3.21513,4.43124 1.83013,6.83013 z" />
    </g>
    <g
       id="g20"
       transform="translate(0.23807022)">
      <use
         x="0"
         y="0"
         xlink:href="#path3"
         id="use17"
         transform="rotate(180,40.966154,187.76477)" />
      <use
         x="0"
         y="0"
         xlink:href="#path4"
         id="use18"
         transform="rotate(180,40.966154,187.76477)" />
      <use
         x="0"
         y="0"
         xlink:href="#rect11-2-7"
         id="use19"
         transform="rotate(180,40.966154,187.76477)" />
    </g>
  </g>
</svg>
