<?xml version="1.0" encoding="UTF-8"?>
<svg xmlns="http://www.w3.org/2000/svg" xmlns:xlink="http://www.w3.org/1999/xlink" width="32px" height="32px" viewBox="0 0 32 31" version="1.1">
<g id="surface1">
<path style=" stroke:none;fill-rule:nonzero;fill:rgb(95.294118%,54.509807%,65.882355%);fill-opacity:1;" d="M 8.722656 8.160156 C 6.097656 10.347656 5.105469 13.53125 5.171875 15.785156 C 5.171875 21.546875 9.988281 26.214844 15.933594 26.214844 L 15.933594 22.738281 C 11.972656 22.738281 8.757812 19.625 8.757812 15.785156 C 8.761719 13.382812 9.726562 11.785156 11.167969 10.730469 C 11.707031 10.335938 12.078125 9.582031 11.9375 8.941406 C 11.648438 7.625 10.066406 7.042969 8.722656 8.160156 Z M 23.144531 8.160156 C 25.769531 10.347656 26.765625 13.53125 26.699219 15.785156 C 26.699219 21.546875 21.878906 26.214844 15.933594 26.214844 L 15.933594 22.738281 C 19.898438 22.738281 23.113281 19.625 23.113281 15.785156 C 23.109375 13.382812 22.144531 11.785156 20.703125 10.730469 C 20.164062 10.335938 19.792969 9.582031 19.933594 8.941406 C 20.222656 7.625 21.804688 7.042969 23.144531 8.160156 Z M 23.144531 8.160156 "/>
<path style=" stroke:none;fill-rule:nonzero;fill:rgb(95.294118%,54.509807%,65.882355%);fill-opacity:1;" d="M 15.738281 4.8125 L 16.144531 4.8125 C 16.949219 4.8125 17.597656 5.539062 17.597656 6.433594 L 17.597656 11.089844 C 17.597656 11.96875 16.957031 12.683594 16.167969 12.683594 L 15.714844 12.683594 C 14.925781 12.683594 14.285156 11.96875 14.285156 11.089844 L 14.285156 6.433594 C 14.285156 5.539062 14.933594 4.8125 15.738281 4.8125 Z M 15.738281 4.8125 "/>
</g>
</svg>
