<?xml version="1.0" encoding="UTF-8" standalone="no"?>
<!-- Created with Inkscape (http://www.inkscape.org/) -->

<svg
   width="66.761536mm"
   height="66.761528mm"
   viewBox="0 0 66.761536 66.761528"
   version="1.1"
   id="svg1"
   xmlns="http://www.w3.org/2000/svg"
   xmlns:svg="http://www.w3.org/2000/svg">
  <defs
     id="defs1" />
  <g
     id="layer4"
     transform="translate(-7.4663489,-227.02962)">
    <path
       style="display:inline;fill:#11111b;fill-opacity:1;stroke-width:0.284027"
       id="rect10-3-5-5"
       width="110.00001"
       height="109.99999"
       x="65"
       y="90"
       d="m 80.000002,90 h 80.403268 a 14.596733,14.596733 45 0 1 14.59674,14.59673 v 80.40326 a 15.000004,15.000004 135 0 1 -15.00001,15 H 79.999998 A 14.999998,14.999998 45 0 1 65,184.99999 V 105 A 15.000002,15.000002 135 0 1 80.000002,90 Z"
       transform="matrix(0.60692305,0,0,0.60692305,-31.983649,172.40655)" />
    <path
       d="m 60.504834,272.11311 a 19.242109,18.812267 0 0 1 -10.206612,2.86597 19.242109,18.812267 0 0 1 -19.242236,-18.81229 19.242109,18.812267 0 0 1 13.558862,-17.95342 23.020259,22.506019 0 0 0 -3.767729,-0.30903 23.020259,22.506019 0 0 0 -23.0203,22.50612 23.020259,22.506019 0 0 0 23.0203,22.50612 23.020259,22.506019 0 0 0 19.657715,-10.80347 z"
       style="fill:#89dceb;fill-opacity:1;stroke-width:0.389479"
       id="path1" />
  </g>
</svg>
