<?xml version="1.0" encoding="UTF-8"?>
<svg xmlns="http://www.w3.org/2000/svg" xmlns:xlink="http://www.w3.org/1999/xlink" width="32px" height="32px" viewBox="0 0 32 31" version="1.1">
<g id="surface1">
<path style=" stroke:none;fill-rule:nonzero;fill:rgb(6.666667%,6.666667%,10.588235%);fill-opacity:1;" d="M 4.355469 0 L 27.703125 0 C 30.042969 0 31.941406 1.839844 31.941406 4.105469 L 31.941406 26.722656 C 31.941406 29.054688 29.988281 30.941406 27.585938 30.941406 L 4.355469 30.941406 C 1.949219 30.941406 0 29.054688 0 26.722656 L 0 4.21875 C 0 1.890625 1.949219 0 4.355469 0 Z M 4.355469 0 "/>
<path style=" stroke:none;fill-rule:nonzero;fill:rgb(98.039216%,70.19608%,52.941179%);fill-opacity:1;" d="M 16.082031 22.578125 C 11.964844 22.578125 8.625 19.398438 8.625 15.472656 L 5.070312 15.472656 C 5.070312 21.230469 10 25.902344 16.082031 25.902344 Z M 16.082031 22.578125 "/>
<path style=" stroke:none;fill-rule:nonzero;fill:rgb(98.039216%,70.19608%,52.941179%);fill-opacity:1;" d="M 17.796875 24.242188 C 17.796875 23.324219 17.03125 22.578125 16.082031 22.578125 C 15.136719 22.578125 14.371094 23.324219 14.371094 24.242188 C 14.371094 25.160156 15.136719 25.902344 16.082031 25.902344 C 17.03125 25.902344 17.796875 25.160156 17.796875 24.242188 Z M 17.796875 24.242188 "/>
<path style=" stroke:none;fill-rule:nonzero;fill:rgb(98.039216%,70.19608%,52.941179%);fill-opacity:1;" d="M 9.929688 15.195312 C 9.929688 16.050781 9.320312 16.738281 8.5625 16.738281 L 5.132812 16.738281 C 4.378906 16.738281 3.765625 16.050781 3.765625 15.195312 C 3.765625 14.339844 4.378906 13.648438 5.132812 13.648438 L 8.5625 13.648438 C 9.320312 13.648438 9.929688 14.339844 9.929688 15.195312 Z M 6.183594 10.464844 C 6.839844 10.035156 7.671875 10.289062 8.050781 11.03125 L 9.765625 14.386719 C 10.144531 15.128906 9.921875 16.070312 9.265625 16.496094 C 8.609375 16.925781 7.777344 16.671875 7.398438 15.933594 L 5.683594 12.574219 C 5.304688 11.832031 5.527344 10.890625 6.183594 10.464844 Z M 4.433594 16.496094 C 3.777344 16.070312 3.554688 15.128906 3.933594 14.386719 L 5.644531 11.03125 C 6.023438 10.289062 6.859375 10.035156 7.515625 10.464844 C 8.167969 10.890625 8.394531 11.832031 8.015625 12.574219 L 6.300781 15.933594 C 5.921875 16.671875 5.089844 16.925781 4.433594 16.496094 Z M 4.433594 16.496094 "/>
<path style=" stroke:none;fill-rule:nonzero;fill:rgb(98.039216%,70.19608%,52.941179%);fill-opacity:1;" d="M 16.082031 8.363281 C 20.203125 8.363281 23.542969 11.542969 23.542969 15.472656 L 27.097656 15.472656 C 27.097656 9.710938 22.167969 5.039062 16.082031 5.039062 Z M 16.082031 8.363281 "/>
<path style=" stroke:none;fill-rule:nonzero;fill:rgb(98.039216%,70.19608%,52.941179%);fill-opacity:1;" d="M 14.371094 6.699219 C 14.371094 7.617188 15.136719 8.363281 16.082031 8.363281 C 17.03125 8.363281 17.796875 7.617188 17.796875 6.699219 C 17.796875 5.785156 17.03125 5.039062 16.082031 5.039062 C 15.136719 5.039062 14.371094 5.785156 14.371094 6.699219 Z M 14.371094 6.699219 "/>
<path style=" stroke:none;fill-rule:nonzero;fill:rgb(98.039216%,70.19608%,52.941179%);fill-opacity:1;" d="M 22.238281 15.746094 C 22.238281 14.890625 22.847656 14.203125 23.605469 14.203125 L 27.035156 14.203125 C 27.789062 14.203125 28.402344 14.890625 28.402344 15.746094 C 28.402344 16.605469 27.789062 17.292969 27.035156 17.292969 L 23.605469 17.292969 C 22.847656 17.292969 22.238281 16.605469 22.238281 15.746094 Z M 25.984375 20.476562 C 25.328125 20.90625 24.496094 20.652344 24.117188 19.914062 L 22.402344 16.554688 C 22.023438 15.8125 22.246094 14.871094 22.902344 14.445312 C 23.558594 14.015625 24.390625 14.269531 24.769531 15.011719 L 26.484375 18.367188 C 26.863281 19.109375 26.640625 20.050781 25.984375 20.476562 Z M 27.734375 14.445312 C 28.390625 14.871094 28.613281 15.8125 28.234375 16.554688 L 26.523438 19.914062 C 26.144531 20.652344 25.308594 20.90625 24.652344 20.476562 C 24 20.050781 23.773438 19.109375 24.152344 18.367188 L 25.867188 15.011719 C 26.246094 14.269531 27.078125 14.015625 27.734375 14.445312 Z M 27.734375 14.445312 "/>
</g>
</svg>
