<?xml version="1.0" encoding="UTF-8"?>
<svg xmlns="http://www.w3.org/2000/svg" xmlns:xlink="http://www.w3.org/1999/xlink" width="32px" height="32px" viewBox="0 0 32 31" version="1.1">
<g id="surface1">
<path style=" stroke:none;fill-rule:nonzero;fill:rgb(6.666667%,6.666667%,10.588235%);fill-opacity:1;" d="M 4.355469 0 L 27.703125 0 C 30.042969 0 31.941406 1.839844 31.941406 4.105469 L 31.941406 26.722656 C 31.941406 29.054688 29.988281 30.941406 27.585938 30.941406 L 4.355469 30.941406 C 1.949219 30.941406 0 29.054688 0 26.722656 L 0 4.21875 C 0 1.890625 1.949219 0 4.355469 0 Z M 4.355469 0 "/>
<path style=" stroke:none;fill-rule:nonzero;fill:rgb(95.294118%,54.509807%,65.882355%);fill-opacity:1;" d="M 8.753906 8.160156 C 6.128906 10.347656 5.136719 13.53125 5.199219 15.785156 C 5.199219 21.546875 10.019531 26.214844 15.964844 26.214844 L 15.964844 22.738281 C 12 22.738281 8.789062 19.625 8.789062 15.785156 C 8.789062 13.382812 9.757812 11.785156 11.195312 10.730469 C 11.734375 10.335938 12.105469 9.582031 11.96875 8.941406 C 11.679688 7.625 10.09375 7.042969 8.753906 8.160156 Z M 23.175781 8.160156 C 25.800781 10.347656 26.792969 13.53125 26.730469 15.785156 C 26.730469 21.546875 21.910156 26.214844 15.964844 26.214844 L 15.964844 22.738281 C 19.925781 22.738281 23.140625 19.625 23.140625 15.785156 C 23.136719 13.382812 22.171875 11.785156 20.730469 10.730469 C 20.195312 10.335938 19.820312 9.582031 19.960938 8.941406 C 20.25 7.625 21.832031 7.042969 23.175781 8.160156 Z M 23.175781 8.160156 "/>
<path style=" stroke:none;fill-rule:nonzero;fill:rgb(95.294118%,54.509807%,65.882355%);fill-opacity:1;" d="M 15.769531 4.8125 L 16.171875 4.8125 C 16.976562 4.8125 17.628906 5.539062 17.628906 6.433594 L 17.628906 11.089844 C 17.628906 11.96875 16.988281 12.683594 16.195312 12.683594 L 15.742188 12.683594 C 14.953125 12.683594 14.3125 11.96875 14.3125 11.089844 L 14.3125 6.433594 C 14.3125 5.539062 14.964844 4.8125 15.769531 4.8125 Z M 15.769531 4.8125 "/>
</g>
</svg>
