<?xml version="1.0" encoding="UTF-8"?>
<svg xmlns="http://www.w3.org/2000/svg" xmlns:xlink="http://www.w3.org/1999/xlink" width="32px" height="32px" viewBox="0 0 32 31" version="1.1">
<g id="surface1">
<path style=" stroke:none;fill-rule:nonzero;fill:rgb(65.098041%,89.019608%,63.137257%);fill-opacity:1;" d="M 22.894531 8.484375 C 20.636719 5.941406 17.351562 4.980469 15.023438 5.042969 C 9.078125 5.042969 4.257812 9.710938 4.257812 15.472656 L 7.847656 15.472656 C 7.847656 11.632812 11.058594 8.519531 15.023438 8.519531 C 17.503906 8.519531 19.152344 9.457031 20.242188 10.851562 C 20.648438 11.371094 21.425781 11.734375 22.085938 11.597656 C 23.449219 11.320312 24.046875 9.785156 22.894531 8.484375 Z M 22.894531 22.457031 C 20.636719 25 17.351562 25.960938 15.023438 25.898438 C 9.078125 25.898438 4.257812 21.230469 4.257812 15.472656 L 7.847656 15.472656 C 7.847656 19.308594 11.058594 22.421875 15.023438 22.421875 C 17.503906 22.421875 19.152344 21.484375 20.242188 20.089844 C 20.648438 19.570312 21.425781 19.207031 22.085938 19.34375 C 23.449219 19.625 24.046875 21.15625 22.894531 22.457031 Z M 22.894531 22.457031 "/>
<path style=" stroke:none;fill-rule:nonzero;fill:rgb(65.098041%,89.019608%,63.137257%);fill-opacity:1;" d="M 26.285156 15.273438 L 26.285156 15.671875 C 26.285156 16.460938 25.523438 17.101562 24.585938 17.101562 L 19.703125 17.101562 C 18.78125 17.101562 18.035156 16.472656 18.035156 15.695312 L 18.035156 15.246094 C 18.035156 14.46875 18.78125 13.839844 19.703125 13.839844 L 24.585938 13.839844 C 25.523438 13.839844 26.285156 14.480469 26.285156 15.273438 Z M 26.285156 15.273438 "/>
<path style=" stroke:none;fill-rule:nonzero;fill:rgb(65.098041%,89.019608%,63.137257%);fill-opacity:1;" d="M 24.0625 18.457031 C 23.398438 18.457031 22.867188 17.867188 22.867188 17.132812 L 22.867188 13.808594 C 22.867188 13.078125 23.398438 12.484375 24.0625 12.484375 C 24.726562 12.484375 25.257812 13.078125 25.257812 13.808594 L 25.257812 17.132812 C 25.257812 17.867188 24.726562 18.457031 24.0625 18.457031 Z M 27.722656 14.828125 C 28.054688 15.460938 27.859375 16.269531 27.285156 16.636719 L 24.6875 18.296875 C 24.113281 18.664062 23.386719 18.445312 23.054688 17.8125 C 22.722656 17.175781 22.917969 16.371094 23.492188 16.003906 L 26.089844 14.339844 C 26.664062 13.976562 27.390625 14.191406 27.722656 14.828125 Z M 23.054688 13.128906 C 23.386719 12.496094 24.113281 12.277344 24.6875 12.644531 L 27.285156 14.304688 C 27.859375 14.671875 28.054688 15.480469 27.722656 16.117188 C 27.390625 16.75 26.664062 16.96875 26.089844 16.601562 L 23.492188 14.941406 C 22.917969 14.574219 22.722656 13.765625 23.054688 13.128906 Z M 23.054688 13.128906 "/>
</g>
</svg>
