<?xml version="1.0" encoding="UTF-8"?>
<svg xmlns="http://www.w3.org/2000/svg" xmlns:xlink="http://www.w3.org/1999/xlink" width="32px" height="32px" viewBox="0 0 32 31" version="1.1">
<g id="surface1">
<path style=" stroke:none;fill-rule:nonzero;fill:rgb(6.666667%,6.666667%,10.588235%);fill-opacity:1;" d="M 4.355469 0 L 27.703125 0 C 30.042969 0 31.941406 1.839844 31.941406 4.105469 L 31.941406 26.722656 C 31.941406 29.054688 29.988281 30.941406 27.585938 30.941406 L 4.355469 30.941406 C 1.949219 30.941406 0 29.054688 0 26.722656 L 0 4.21875 C 0 1.890625 1.949219 0 4.355469 0 Z M 4.355469 0 "/>
<path style=" stroke:none;fill-rule:nonzero;fill:rgb(98.039216%,70.19608%,52.941179%);fill-opacity:1;" d="M 15.96875 22.578125 C 11.851562 22.578125 8.511719 19.398438 8.511719 15.472656 L 4.957031 15.472656 C 4.957031 21.230469 9.886719 25.902344 15.96875 25.902344 Z M 15.96875 22.578125 "/>
<path style=" stroke:none;fill-rule:nonzero;fill:rgb(98.039216%,70.19608%,52.941179%);fill-opacity:1;" d="M 17.683594 24.242188 C 17.683594 23.324219 16.917969 22.578125 15.96875 22.578125 C 15.023438 22.578125 14.253906 23.324219 14.253906 24.242188 C 14.253906 25.160156 15.023438 25.902344 15.96875 25.902344 C 16.917969 25.902344 17.683594 25.160156 17.683594 24.242188 Z M 17.683594 24.242188 "/>
<path style=" stroke:none;fill-rule:nonzero;fill:rgb(98.039216%,70.19608%,52.941179%);fill-opacity:1;" d="M 9.816406 14.769531 C 9.816406 15.410156 9.207031 15.929688 8.449219 15.929688 L 5.019531 15.929688 C 4.261719 15.929688 3.652344 15.410156 3.652344 14.769531 C 3.652344 14.128906 4.261719 13.609375 5.019531 13.609375 L 8.449219 13.609375 C 9.207031 13.609375 9.816406 14.128906 9.816406 14.769531 Z M 6.070312 11.222656 C 6.726562 10.902344 7.558594 11.089844 7.9375 11.648438 L 9.652344 14.164062 C 10.03125 14.71875 9.804688 15.425781 9.152344 15.746094 C 8.496094 16.066406 7.660156 15.878906 7.28125 15.324219 L 5.570312 12.804688 C 5.191406 12.25 5.414062 11.542969 6.070312 11.222656 Z M 4.320312 15.746094 C 3.664062 15.425781 3.441406 14.71875 3.816406 14.164062 L 5.53125 11.648438 C 5.910156 11.089844 6.742188 10.902344 7.398438 11.222656 C 8.054688 11.542969 8.277344 12.25 7.898438 12.804688 L 6.1875 15.324219 C 5.808594 15.878906 4.972656 16.066406 4.320312 15.746094 Z M 4.320312 15.746094 "/>
<path style=" stroke:none;fill-rule:nonzero;fill:rgb(98.039216%,70.19608%,52.941179%);fill-opacity:1;" d="M 15.96875 8.363281 C 20.089844 8.363281 23.425781 11.542969 23.425781 15.472656 L 26.984375 15.472656 C 26.984375 9.710938 22.050781 5.039062 15.96875 5.039062 Z M 15.96875 8.363281 "/>
<path style=" stroke:none;fill-rule:nonzero;fill:rgb(98.039216%,70.19608%,52.941179%);fill-opacity:1;" d="M 14.253906 6.699219 C 14.253906 7.617188 15.023438 8.363281 15.96875 8.363281 C 16.917969 8.363281 17.683594 7.617188 17.683594 6.699219 C 17.683594 5.785156 16.917969 5.039062 15.96875 5.039062 C 15.023438 5.039062 14.253906 5.785156 14.253906 6.699219 Z M 14.253906 6.699219 "/>
<path style=" stroke:none;fill-rule:nonzero;fill:rgb(98.039216%,70.19608%,52.941179%);fill-opacity:1;" d="M 22.125 16.171875 C 22.125 15.53125 22.734375 15.011719 23.492188 15.011719 L 26.917969 15.011719 C 27.675781 15.011719 28.285156 15.53125 28.285156 16.171875 C 28.285156 16.8125 27.675781 17.332031 26.917969 17.332031 L 23.492188 17.332031 C 22.734375 17.332031 22.125 16.8125 22.125 16.171875 Z M 25.871094 19.71875 C 25.214844 20.039062 24.382812 19.851562 24.003906 19.292969 L 22.289062 16.777344 C 21.910156 16.222656 22.132812 15.515625 22.789062 15.195312 C 23.445312 14.875 24.277344 15.0625 24.65625 15.621094 L 26.371094 18.136719 C 26.75 18.691406 26.527344 19.398438 25.871094 19.71875 Z M 27.621094 15.195312 C 28.277344 15.515625 28.5 16.222656 28.121094 16.777344 L 26.40625 19.292969 C 26.027344 19.851562 25.195312 20.039062 24.539062 19.71875 C 23.882812 19.398438 23.660156 18.691406 24.039062 18.136719 L 25.753906 15.621094 C 26.132812 15.0625 26.964844 14.875 27.621094 15.195312 Z M 27.621094 15.195312 "/>
</g>
</svg>
